<?xml version="1.0" encoding="UTF-8"?>
<svg xmlns="http://www.w3.org/2000/svg" xmlns:xlink="http://www.w3.org/1999/xlink" width="727pt" height="614.86pt" viewBox="0 0 727 614.86" version="1.1">
<defs>
<clipPath id="clip1">
  <path d="M 0 0 L 727 0 L 727 614.859375 L 0 614.859375 Z M 0 0 "/>
</clipPath>
</defs>
<g id="surface1">
<g clip-path="url(#clip1)" clip-rule="nonzero">
<path style="fill:none;stroke-width:1200;stroke-linecap:round;stroke-linejoin:round;stroke:rgb(99.198914%,34.498596%,36.898804%);stroke-opacity:1;stroke-miterlimit:10;" d="M 600 5548.6 L 600 2711.4125 C 600 2521.88125 628.671875 2333.44375 686.25 2152.896875 C 687.8125 2147.975 689.414063 2142.975 691.054688 2137.935937 C 928.398438 1408.873437 1523.59375 848.873437 2267.460938 663.014062 C 2444.296875 618.834375 2574.335938 608.990625 2623.476563 606.803125 C 2638.4375 606.139062 2653.28125 605.1625 2668.242188 603.990625 C 2826.757813 591.725 3763.007813 557.857812 4462.773438 1387.232812 C 4602.070313 1542.896875 4727.1875 1793.13125 4808.125 1976.998437 C 4870.585938 2118.9125 4906.132813 2271.178125 4914.140625 2426.021875 L 5002.8125 3053.717187 L 5039.335938 3653.365625 C 5039.335938 3653.365625 5100 4258.6 5050.46875 4583.834375 C 5022.070313 4770.31875 4948.164063 4946.451562 4827.65625 5091.56875 C 4548.75 5427.310937 4205.820313 5464.146875 4133.90625 5468.170312 C 4124.648438 5468.717187 4115.351563 5469.303125 4106.054688 5470.00625 C 4024.648438 5476.1 3610.742188 5487.271875 3298.789063 5122.35 C 3113.90625 4906.139062 3024.335938 4621.920312 3060.039063 4339.69375 C 3112.65625 3923.75625 3408.671875 3657.115625 3677.8125 3483.170312 C 4122.65625 3195.709375 5340 2658.6 6670 2658.6 " transform="matrix(0.1,0,0,-0.1,0,614.86)"/>
</g>
</g>
</svg>
